# xmcd
#
# Track frame offsets:
#	150
#	8558
#	16327
#	28702
#	42195
#	51480
#	61553
#	66871
#	84042
#	93857
#	106937
#	118949
#	129142
#	139594
#	151388
#	159345
#	169796
#	178478
#	193677
#	202760
#	216203
#	228123
#	237416
#	263450
#
# Disc length: 4440 seconds
#
# Revision: 4
# Processed by: cddbd v1.5.1PL0 Copyright (c) Steve Scherf et al.
# Submitted via: audiograbber 1.83.01
#
DISCID=2d115618
DTITLE=Karel Plihal - Nebe pocka
DYEAR=2004
DGENRE=Blues
TTITLE0=Devce mi usnulo
TTITLE1=Bazliva
TTITLE2=Trochu v hlave mam
TTITLE3=Miss Otis lituje
TTITLE4=Ja vratim se zpatky
TTITLE5=Sedavam na domovnich schodech
TTITLE6=Mam krivej nos
TTITLE7=Odchazim z domova
TTITLE8=Harfy v nebi
TTITLE9=Zeleznicni most
TTITLE10=Penize z nebe
TTITLE11=Pomalu plyne proud
TTITLE12=Odjakziva mne to vabi
TTITLE13=Blues o zizni
TTITLE14=Destivy den
TTITLE15=Imperial blues
TTITLE16=Svadlenka
TTITLE17=Mrtvy vrabec
TTITLE18=Stary muz
TTITLE19=Kuceravy listonos
TTITLE20=Cerna kara
TTITLE21=Diga Diga Do
TTITLE22=Nebe pocka
TTITLE23=Data
EXTD=YEAR: 2004
EXTT0=
EXTT1=
EXTT2=
EXTT3=
EXTT4=
EXTT5=
EXTT6=
EXTT7=
EXTT8=
EXTT9=
EXTT10=
EXTT11=
EXTT12=
EXTT13=
EXTT14=
EXTT15=
EXTT16=
EXTT17=
EXTT18=
EXTT19=
EXTT20=
EXTT21=
EXTT22=
EXTT23=
PLAYORDER=
